<?xml version="1.0" encoding="utf-8"?>
<!-- Generator: Adobe Illustrator 27.5.0, SVG Export Plug-In . SVG Version: 6.00 Build 0)  -->
<svg version="1.1" xmlns="http://www.w3.org/2000/svg" xmlns:xlink="http://www.w3.org/1999/xlink" x="0px" y="0px"
	 viewBox="0 0 2560 1440" style="enable-background:new 0 0 2560 1440;" xml:space="preserve">
<g id="BACKGROUND">
	<rect width="2560" height="1440"/>
</g>
<g id="OBJECTS">
	<g>
		<defs>
			<rect id="SVGID_1_" width="2560" height="1440"/>
		</defs>
		<clipPath id="SVGID_00000039106406609991738710000011446183091862420131_">
			<use xlink:href="#SVGID_1_"  style="overflow:visible;"/>
		</clipPath>
		<g style="opacity:0.2;clip-path:url(#SVGID_00000039106406609991738710000011446183091862420131_);">
			<rect x="1341.952" y="1088.714" style="fill:none;" width="119.905" height="119.905"/>
			<rect x="1463.857" y="113.476" style="fill:none;" width="119.904" height="119.905"/>
			<rect x="1463.857" y="844.905" style="fill:none;" width="119.904" height="119.905"/>
			<rect x="1463.857" style="fill:none;" width="119.904" height="111.476"/>
			<rect x="1463.857" y="357.286" style="fill:none;" width="119.904" height="119.905"/>
			<rect x="1463.857" y="966.81" style="fill:none;" width="119.904" height="119.904"/>
			<rect x="1463.857" y="235.381" style="fill:none;" width="119.904" height="119.905"/>
			<rect x="1463.857" y="479.19" style="fill:none;" width="119.904" height="119.905"/>
			<rect x="1463.857" y="723" style="fill:none;" width="119.904" height="119.905"/>
			<rect x="1341.952" y="966.81" style="fill:none;" width="119.905" height="119.904"/>
			<rect x="1463.857" y="601.095" style="fill:none;" width="119.904" height="119.905"/>
			<rect x="1341.952" y="1210.619" style="fill:none;" width="119.905" height="119.905"/>
			<rect x="976.238" y="966.81" style="fill:none;" width="119.904" height="119.904"/>
			<rect x="976.238" y="1210.619" style="fill:none;" width="119.904" height="119.905"/>
			<rect x="1098.143" y="357.286" style="fill:none;" width="119.905" height="119.905"/>
			<rect x="1098.143" y="113.476" style="fill:none;" width="119.905" height="119.905"/>
			<rect x="1098.143" y="1088.714" style="fill:none;" width="119.905" height="119.905"/>
			<rect x="1098.143" y="479.19" style="fill:none;" width="119.905" height="119.905"/>
			<rect x="1098.143" y="235.381" style="fill:none;" width="119.905" height="119.905"/>
			<rect x="1098.143" y="966.81" style="fill:none;" width="119.905" height="119.904"/>
			<rect x="1098.143" y="844.905" style="fill:none;" width="119.905" height="119.905"/>
			<rect x="1098.143" y="723" style="fill:none;" width="119.905" height="119.905"/>
			<rect x="1341.952" y="844.905" style="fill:none;" width="119.905" height="119.905"/>
			<rect x="1098.143" style="fill:none;" width="119.905" height="111.476"/>
			<rect x="976.238" y="235.381" style="fill:none;" width="119.904" height="119.905"/>
			<rect x="976.238" y="357.286" style="fill:none;" width="119.904" height="119.905"/>
			<rect x="976.238" y="113.476" style="fill:none;" width="119.904" height="119.905"/>
			<rect x="976.238" style="fill:none;" width="119.904" height="111.476"/>
			<rect x="976.238" y="723" style="fill:none;" width="119.904" height="119.905"/>
			<rect x="976.238" y="844.905" style="fill:none;" width="119.904" height="119.905"/>
			<rect x="976.238" y="1088.714" style="fill:none;" width="119.904" height="119.905"/>
			<rect x="976.238" y="601.095" style="fill:none;" width="119.904" height="119.905"/>
			<rect x="976.238" y="479.19" style="fill:none;" width="119.904" height="119.905"/>
			<rect x="1098.143" y="601.095" style="fill:none;" width="119.905" height="119.905"/>
			<rect x="1341.952" y="235.381" style="fill:none;" width="119.905" height="119.905"/>
			<rect x="1341.952" y="113.476" style="fill:none;" width="119.905" height="119.905"/>
			<rect x="1341.952" style="fill:none;" width="119.905" height="111.476"/>
			<rect x="1220.048" y="1210.619" style="fill:none;" width="119.904" height="119.905"/>
			<rect x="1341.952" y="601.095" style="fill:none;" width="119.905" height="119.905"/>
			<rect x="1341.952" y="357.286" style="fill:none;" width="119.905" height="119.905"/>
			<rect x="1220.048" y="1088.714" style="fill:none;" width="119.904" height="119.905"/>
			<rect x="1341.952" y="723" style="fill:none;" width="119.905" height="119.905"/>
			<rect x="1341.952" y="479.19" style="fill:none;" width="119.905" height="119.905"/>
			<rect x="1220.048" y="479.19" style="fill:none;" width="119.904" height="119.905"/>
			<rect x="1220.048" y="113.476" style="fill:none;" width="119.904" height="119.905"/>
			<rect x="1220.048" y="966.81" style="fill:none;" width="119.904" height="119.904"/>
			<rect x="1220.048" style="fill:none;" width="119.904" height="111.476"/>
			<rect x="1220.048" y="357.286" style="fill:none;" width="119.904" height="119.905"/>
			<rect x="1220.048" y="235.381" style="fill:none;" width="119.904" height="119.905"/>
			<rect x="1220.048" y="844.905" style="fill:none;" width="119.904" height="119.905"/>
			<rect x="1220.048" y="723" style="fill:none;" width="119.904" height="119.905"/>
			<rect x="1098.143" y="1210.619" style="fill:none;" width="119.905" height="119.905"/>
			<rect x="1220.048" y="601.095" style="fill:none;" width="119.904" height="119.905"/>
			<rect x="1829.571" style="fill:none;" width="119.905" height="111.476"/>
			<rect x="2195.286" y="235.381" style="fill:none;" width="119.904" height="119.905"/>
			<rect x="2195.286" y="357.286" style="fill:none;" width="119.904" height="119.905"/>
			<rect x="2195.286" y="479.19" style="fill:none;" width="119.904" height="119.905"/>
			<rect x="2195.286" y="113.476" style="fill:none;" width="119.904" height="119.905"/>
			<rect x="2195.286" style="fill:none;" width="119.904" height="111.476"/>
			<rect x="2073.381" y="1210.619" style="fill:none;" width="119.905" height="119.905"/>
			<rect x="2195.286" y="1210.619" style="fill:none;" width="119.904" height="119.905"/>
			<rect x="2195.286" y="966.81" style="fill:none;" width="119.904" height="119.904"/>
			<rect x="2195.286" y="844.905" style="fill:none;" width="119.904" height="119.905"/>
			<rect x="2195.286" y="601.095" style="fill:none;" width="119.904" height="119.905"/>
			<rect x="2195.286" y="723" style="fill:none;" width="119.904" height="119.905"/>
			<rect x="2195.286" y="1088.714" style="fill:none;" width="119.904" height="119.905"/>
			<rect x="2073.381" y="235.381" style="fill:none;" width="119.905" height="119.905"/>
			<rect x="1951.477" y="1210.619" style="fill:none;" width="119.904" height="119.905"/>
			<rect x="2073.381" style="fill:none;" width="119.905" height="111.476"/>
			<rect x="2073.381" y="479.19" style="fill:none;" width="119.905" height="119.905"/>
			<rect x="2073.381" y="113.476" style="fill:none;" width="119.905" height="119.905"/>
			<rect x="2073.381" y="601.095" style="fill:none;" width="119.905" height="119.905"/>
			<rect x="2073.381" y="1088.714" style="fill:none;" width="119.905" height="119.905"/>
			<rect x="2073.381" y="966.81" style="fill:none;" width="119.905" height="119.904"/>
			<rect x="2073.381" y="844.905" style="fill:none;" width="119.905" height="119.905"/>
			<rect x="2073.381" y="723" style="fill:none;" width="119.905" height="119.905"/>
			<rect x="2073.381" y="357.286" style="fill:none;" width="119.905" height="119.905"/>
			<rect x="2439.096" y="966.81" style="fill:none;" width="119.904" height="119.904"/>
			<rect x="2439.096" y="1088.714" style="fill:none;" width="119.904" height="119.905"/>
			<rect x="2439.096" y="844.905" style="fill:none;" width="119.904" height="119.905"/>
			<rect x="2439.096" y="1210.619" style="fill:none;" width="119.904" height="119.905"/>
			<rect x="2317.19" y="1210.619" style="fill:none;" width="119.905" height="119.905"/>
			<rect x="2439.096" y="601.095" style="fill:none;" width="119.904" height="119.905"/>
			<rect x="2439.096" y="723" style="fill:none;" width="119.904" height="119.905"/>
			<rect x="2439.096" y="479.19" style="fill:none;" width="119.904" height="119.905"/>
			<rect x="2439.096" y="357.286" style="fill:none;" width="119.904" height="119.905"/>
			<rect x="2439.096" y="113.476" style="fill:none;" width="119.904" height="119.905"/>
			<rect x="2317.19" y="113.476" style="fill:none;" width="119.905" height="119.905"/>
			<rect x="2317.19" y="601.095" style="fill:none;" width="119.905" height="119.905"/>
			<rect x="2317.19" y="357.286" style="fill:none;" width="119.905" height="119.905"/>
			<rect x="2317.19" y="479.19" style="fill:none;" width="119.905" height="119.905"/>
			<rect x="2317.19" style="fill:none;" width="119.905" height="111.476"/>
			<rect x="2317.19" y="235.381" style="fill:none;" width="119.905" height="119.905"/>
			<rect x="2317.19" y="723" style="fill:none;" width="119.905" height="119.905"/>
			<rect x="2317.19" y="966.81" style="fill:none;" width="119.905" height="119.904"/>
			<rect x="2317.19" y="1088.714" style="fill:none;" width="119.905" height="119.905"/>
			<rect x="2439.096" style="fill:none;" width="119.904" height="111.476"/>
			<rect x="2317.19" y="844.905" style="fill:none;" width="119.905" height="119.905"/>
			<rect x="1585.762" style="fill:none;" width="119.905" height="111.476"/>
			<rect x="1707.667" y="113.476" style="fill:none;" width="119.904" height="119.905"/>
			<rect x="1707.667" y="235.381" style="fill:none;" width="119.904" height="119.905"/>
			<rect x="1585.762" y="1088.714" style="fill:none;" width="119.905" height="119.905"/>
			<rect x="1585.762" y="1210.619" style="fill:none;" width="119.905" height="119.905"/>
			<rect x="1707.667" style="fill:none;" width="119.904" height="111.476"/>
			<rect x="1707.667" y="1088.714" style="fill:none;" width="119.904" height="119.905"/>
			<rect x="1707.667" y="966.81" style="fill:none;" width="119.904" height="119.904"/>
			<rect x="1707.667" y="844.905" style="fill:none;" width="119.904" height="119.905"/>
			<rect x="1707.667" y="479.19" style="fill:none;" width="119.904" height="119.905"/>
			<rect x="1707.667" y="723" style="fill:none;" width="119.904" height="119.905"/>
			<rect x="1707.667" y="601.095" style="fill:none;" width="119.904" height="119.905"/>
			<rect x="1707.667" y="357.286" style="fill:none;" width="119.904" height="119.905"/>
			<rect x="1585.762" y="235.381" style="fill:none;" width="119.905" height="119.905"/>
			<rect x="1585.762" y="357.286" style="fill:none;" width="119.905" height="119.905"/>
			<rect x="1585.762" y="113.476" style="fill:none;" width="119.905" height="119.905"/>
			<rect x="1463.857" y="1088.714" style="fill:none;" width="119.904" height="119.905"/>
			<rect x="1463.857" y="1210.619" style="fill:none;" width="119.904" height="119.905"/>
			<rect x="1585.762" y="723" style="fill:none;" width="119.905" height="119.905"/>
			<rect x="1951.477" y="1088.714" style="fill:none;" width="119.904" height="119.905"/>
			<rect x="1585.762" y="966.81" style="fill:none;" width="119.905" height="119.904"/>
			<rect x="1585.762" y="844.905" style="fill:none;" width="119.905" height="119.905"/>
			<rect x="1585.762" y="601.095" style="fill:none;" width="119.905" height="119.905"/>
			<rect x="1585.762" y="479.19" style="fill:none;" width="119.905" height="119.905"/>
			<rect x="1951.477" y="235.381" style="fill:none;" width="119.904" height="119.905"/>
			<rect x="1951.477" y="479.19" style="fill:none;" width="119.904" height="119.905"/>
			<rect x="1951.477" y="357.286" style="fill:none;" width="119.904" height="119.905"/>
			<rect x="1829.571" y="1210.619" style="fill:none;" width="119.905" height="119.905"/>
			<rect x="1951.477" y="113.476" style="fill:none;" width="119.904" height="119.905"/>
			<rect x="1951.477" style="fill:none;" width="119.904" height="111.476"/>
			<rect x="1951.477" y="844.905" style="fill:none;" width="119.904" height="119.905"/>
			<rect x="1951.477" y="966.81" style="fill:none;" width="119.904" height="119.904"/>
			<rect x="1707.667" y="1210.619" style="fill:none;" width="119.904" height="119.905"/>
			<rect x="1951.477" y="601.095" style="fill:none;" width="119.904" height="119.905"/>
			<rect x="1951.477" y="723" style="fill:none;" width="119.904" height="119.905"/>
			<rect x="1829.571" y="357.286" style="fill:none;" width="119.905" height="119.905"/>
			<rect x="1829.571" y="479.19" style="fill:none;" width="119.905" height="119.905"/>
			<rect x="1829.571" y="1088.714" style="fill:none;" width="119.905" height="119.905"/>
			<rect x="854.333" y="1210.619" style="fill:none;" width="119.905" height="119.905"/>
			<rect x="1829.571" y="113.476" style="fill:none;" width="119.905" height="119.905"/>
			<rect x="1829.571" y="235.381" style="fill:none;" width="119.905" height="119.905"/>
			<rect x="1829.571" y="844.905" style="fill:none;" width="119.905" height="119.905"/>
			<rect x="1829.571" y="966.81" style="fill:none;" width="119.905" height="119.904"/>
			<rect x="1829.571" y="723" style="fill:none;" width="119.905" height="119.905"/>
			<rect x="1829.571" y="601.095" style="fill:none;" width="119.905" height="119.905"/>
			<rect x="122.904" y="966.81" style="fill:none;" width="119.905" height="119.904"/>
			<rect x="366.714" style="fill:none;" width="119.905" height="111.476"/>
			<rect x="244.81" y="1088.714" style="fill:none;" width="119.904" height="119.905"/>
			<rect x="610.523" y="357.286" style="fill:none;" width="119.905" height="119.905"/>
			<rect x="244.81" y="966.81" style="fill:none;" width="119.904" height="119.904"/>
			<rect x="244.81" y="844.905" style="fill:none;" width="119.904" height="119.905"/>
			<rect x="366.714" y="357.286" style="fill:none;" width="119.905" height="119.905"/>
			<rect x="366.714" y="601.095" style="fill:none;" width="119.905" height="119.905"/>
			<rect x="366.714" y="479.19" style="fill:none;" width="119.905" height="119.905"/>
			<rect x="366.714" y="235.381" style="fill:none;" width="119.905" height="119.905"/>
			<rect x="366.714" y="113.476" style="fill:none;" width="119.905" height="119.905"/>
			<rect x="244.81" y="723" style="fill:none;" width="119.904" height="119.905"/>
			<rect x="122.904" y="1088.714" style="fill:none;" width="119.905" height="119.905"/>
			<rect x="122.904" y="1210.619" style="fill:none;" width="119.905" height="119.905"/>
			<rect x="244.81" style="fill:none;" width="119.904" height="111.476"/>
			<rect x="2439.096" y="235.381" style="fill:none;" width="119.904" height="119.905"/>
			<rect x="244.81" y="113.476" style="fill:none;" width="119.904" height="119.905"/>
			<rect x="244.81" y="357.286" style="fill:none;" width="119.904" height="119.905"/>
			<rect x="244.81" y="479.19" style="fill:none;" width="119.904" height="119.905"/>
			<rect x="122.904" y="844.905" style="fill:none;" width="119.905" height="119.905"/>
			<rect x="244.81" y="235.381" style="fill:none;" width="119.904" height="119.905"/>
			<rect x="244.81" y="601.095" style="fill:none;" width="119.904" height="119.905"/>
			<rect x="488.619" y="844.905" style="fill:none;" width="119.904" height="119.905"/>
			<rect x="488.619" y="966.81" style="fill:none;" width="119.904" height="119.904"/>
			<rect x="488.619" y="1088.714" style="fill:none;" width="119.904" height="119.905"/>
			<rect x="488.619" y="723" style="fill:none;" width="119.904" height="119.905"/>
			<rect x="488.619" y="601.095" style="fill:none;" width="119.904" height="119.905"/>
			<rect x="488.619" y="1210.619" style="fill:none;" width="119.904" height="119.905"/>
			<rect x="610.523" y="235.381" style="fill:none;" width="119.905" height="119.905"/>
			<rect x="610.523" y="113.476" style="fill:none;" width="119.905" height="119.905"/>
			<rect x="610.523" style="fill:none;" width="119.905" height="111.476"/>
			<rect x="366.714" y="1088.714" style="fill:none;" width="119.905" height="119.905"/>
			<rect x="366.714" y="723" style="fill:none;" width="119.905" height="119.905"/>
			<rect x="366.714" y="1210.619" style="fill:none;" width="119.905" height="119.905"/>
			<rect x="366.714" y="966.81" style="fill:none;" width="119.905" height="119.904"/>
			<rect x="366.714" y="844.905" style="fill:none;" width="119.905" height="119.905"/>
			<rect x="488.619" style="fill:none;" width="119.904" height="111.476"/>
			<rect x="488.619" y="235.381" style="fill:none;" width="119.904" height="119.905"/>
			<rect x="488.619" y="479.19" style="fill:none;" width="119.904" height="119.905"/>
			<rect x="488.619" y="357.286" style="fill:none;" width="119.904" height="119.905"/>
			<rect x="488.619" y="113.476" style="fill:none;" width="119.904" height="119.905"/>
			<rect x="244.81" y="1210.619" style="fill:none;" width="119.904" height="119.905"/>
			<rect x="1098.143" y="1332.524" style="fill:none;" width="119.905" height="107.476"/>
			<rect x="1341.952" y="1332.524" style="fill:none;" width="119.905" height="107.476"/>
			<rect x="122.904" y="723" style="fill:none;" width="119.905" height="119.905"/>
			<rect x="244.81" y="1332.524" style="fill:none;" width="119.904" height="107.476"/>
			<rect x="854.333" y="1332.524" style="fill:none;" width="119.905" height="107.476"/>
			<rect x="488.619" y="1332.524" style="fill:none;" width="119.904" height="107.476"/>
			<rect x="366.714" y="1332.524" style="fill:none;" width="119.905" height="107.476"/>
			<rect x="732.429" y="1332.524" style="fill:none;" width="119.904" height="107.476"/>
			<rect x="610.523" y="1332.524" style="fill:none;" width="119.905" height="107.476"/>
			<rect x="1220.048" y="1332.524" style="fill:none;" width="119.904" height="107.476"/>
			<rect x="2073.381" y="1332.524" style="fill:none;" width="119.905" height="107.476"/>
			<rect x="1463.857" y="1332.524" style="fill:none;" width="119.904" height="107.476"/>
			<rect x="2317.19" y="1332.524" style="fill:none;" width="119.905" height="107.476"/>
			<rect x="2439.096" y="1332.524" style="fill:none;" width="119.904" height="107.476"/>
			<rect x="2195.286" y="1332.524" style="fill:none;" width="119.904" height="107.476"/>
			<rect x="1707.667" y="1332.524" style="fill:none;" width="119.904" height="107.476"/>
			<rect x="1951.477" y="1332.524" style="fill:none;" width="119.904" height="107.476"/>
			<rect x="1585.762" y="1332.524" style="fill:none;" width="119.905" height="107.476"/>
			<rect x="1829.571" y="1332.524" style="fill:none;" width="119.905" height="107.476"/>
			<rect x="976.238" y="1332.524" style="fill:none;" width="119.904" height="107.476"/>
			<rect x="1" y="966.81" style="fill:none;" width="119.904" height="119.904"/>
			<rect x="1" y="1210.619" style="fill:none;" width="119.904" height="119.905"/>
			<rect x="122.904" style="fill:none;" width="119.905" height="111.476"/>
			<rect x="1" y="1088.714" style="fill:none;" width="119.904" height="119.905"/>
			<rect x="122.904" y="113.476" style="fill:none;" width="119.905" height="119.905"/>
			<rect x="122.904" y="601.095" style="fill:none;" width="119.905" height="119.905"/>
			<rect x="122.904" y="1332.524" style="fill:none;" width="119.905" height="107.476"/>
			<rect x="122.904" y="479.19" style="fill:none;" width="119.905" height="119.905"/>
			<rect x="122.904" y="357.286" style="fill:none;" width="119.905" height="119.905"/>
			<rect x="122.904" y="235.381" style="fill:none;" width="119.905" height="119.905"/>
			<rect x="1" style="fill:none;" width="119.904" height="111.476"/>
			<rect x="1" y="113.476" style="fill:none;" width="119.904" height="119.905"/>
			<rect x="1" y="1332.524" style="fill:none;" width="119.904" height="107.476"/>
			<rect x="1" y="235.381" style="fill:none;" width="119.904" height="119.905"/>
			<rect x="1" y="601.095" style="fill:none;" width="119.904" height="119.905"/>
			<rect x="1" y="357.286" style="fill:none;" width="119.904" height="119.905"/>
			<rect x="1" y="844.905" style="fill:none;" width="119.904" height="119.905"/>
			<rect x="1" y="723" style="fill:none;" width="119.904" height="119.905"/>
			<rect x="1" y="479.19" style="fill:none;" width="119.904" height="119.905"/>
			<rect x="732.429" y="357.286" style="fill:none;" width="119.904" height="119.905"/>
			<rect x="732.429" y="601.095" style="fill:none;" width="119.904" height="119.905"/>
			<rect x="732.429" y="723" style="fill:none;" width="119.904" height="119.905"/>
			<rect x="732.429" y="1088.714" style="fill:none;" width="119.904" height="119.905"/>
			<rect x="732.429" y="966.81" style="fill:none;" width="119.904" height="119.904"/>
			<rect x="732.429" y="844.905" style="fill:none;" width="119.904" height="119.905"/>
			<rect x="732.429" y="479.19" style="fill:none;" width="119.904" height="119.905"/>
			<rect x="732.429" style="fill:none;" width="119.904" height="111.476"/>
			<rect x="610.523" y="1088.714" style="fill:none;" width="119.905" height="119.905"/>
			<rect x="610.523" y="1210.619" style="fill:none;" width="119.905" height="119.905"/>
			<rect x="732.429" y="113.476" style="fill:none;" width="119.904" height="119.905"/>
			<rect x="732.429" y="235.381" style="fill:none;" width="119.904" height="119.905"/>
			<rect x="854.333" y="601.095" style="fill:none;" width="119.905" height="119.905"/>
			<rect x="854.333" y="723" style="fill:none;" width="119.905" height="119.905"/>
			<rect x="854.333" y="479.19" style="fill:none;" width="119.905" height="119.905"/>
			<rect x="854.333" y="844.905" style="fill:none;" width="119.905" height="119.905"/>
			<rect x="854.333" y="1088.714" style="fill:none;" width="119.905" height="119.905"/>
			<rect x="854.333" style="fill:none;" width="119.905" height="111.476"/>
			<rect x="854.333" y="113.476" style="fill:none;" width="119.905" height="119.905"/>
			<rect x="732.429" y="1210.619" style="fill:none;" width="119.904" height="119.905"/>
			<rect x="854.333" y="357.286" style="fill:none;" width="119.905" height="119.905"/>
			<rect x="854.333" y="235.381" style="fill:none;" width="119.905" height="119.905"/>
			<rect x="854.333" y="966.81" style="fill:none;" width="119.905" height="119.904"/>
			<rect x="610.523" y="844.905" style="fill:none;" width="119.905" height="119.905"/>
			<rect x="610.523" y="723" style="fill:none;" width="119.905" height="119.905"/>
			<rect x="610.523" y="601.095" style="fill:none;" width="119.905" height="119.905"/>
			<rect x="610.523" y="479.19" style="fill:none;" width="119.905" height="119.905"/>
			<rect x="610.523" y="966.81" style="fill:none;" width="119.905" height="119.904"/>
			<rect y="723" style="fill:#FFFFFF;" width="1" height="119.905"/>
			<rect y="844.905" style="fill:#FFFFFF;" width="1" height="119.905"/>
			<rect x="2559" style="fill:#FFFFFF;" width="1" height="111.476"/>
			<rect y="966.81" style="fill:#FFFFFF;" width="1" height="119.904"/>
			<rect y="1088.714" style="fill:#FFFFFF;" width="1" height="119.905"/>
			<rect y="601.095" style="fill:#FFFFFF;" width="1" height="119.905"/>
			<rect y="113.476" style="fill:#FFFFFF;" width="1" height="119.905"/>
			<rect style="fill:#FFFFFF;" width="1" height="111.476"/>
			<rect y="235.381" style="fill:#FFFFFF;" width="1" height="119.905"/>
			<rect y="479.19" style="fill:#FFFFFF;" width="1" height="119.905"/>
			<rect y="357.286" style="fill:#FFFFFF;" width="1" height="119.905"/>
			<rect x="2559" y="966.81" style="fill:#FFFFFF;" width="1" height="119.904"/>
			<rect x="2559" y="844.905" style="fill:#FFFFFF;" width="1" height="119.905"/>
			<rect x="2559" y="479.19" style="fill:#FFFFFF;" width="1" height="119.905"/>
			<rect x="2559" y="235.381" style="fill:#FFFFFF;" width="1" height="119.905"/>
			<rect y="1210.619" style="fill:#FFFFFF;" width="1" height="119.905"/>
			<rect x="2559" y="601.095" style="fill:#FFFFFF;" width="1" height="119.905"/>
			<rect x="2559" y="357.286" style="fill:#FFFFFF;" width="1" height="119.905"/>
			<rect y="1332.524" style="fill:#FFFFFF;" width="1" height="107.476"/>
			<rect x="2559" y="113.476" style="fill:#FFFFFF;" width="1" height="119.905"/>
			<rect x="2559" y="1332.524" style="fill:#FFFFFF;" width="1" height="107.476"/>
			<rect x="2559" y="1088.714" style="fill:#FFFFFF;" width="1" height="119.905"/>
			<rect x="2559" y="1210.619" style="fill:#FFFFFF;" width="1" height="119.905"/>
			<rect x="2559" y="723" style="fill:#FFFFFF;" width="1" height="119.905"/>
			<rect x="2073.381" y="1330.524" style="fill:#FFFFFF;" width="119.905" height="2"/>
			<rect x="488.619" y="1330.524" style="fill:#FFFFFF;" width="119.904" height="2"/>
			<rect x="976.238" y="1330.524" style="fill:#FFFFFF;" width="119.904" height="2"/>
			<rect x="1829.571" y="1330.524" style="fill:#FFFFFF;" width="119.905" height="2"/>
			<polygon style="fill:#FFFFFF;" points="2439.096,1330.524 2439.096,1332.524 2559,1332.524 2560,1332.524 2560,1330.524 
				2559,1330.524 			"/>
			<rect x="1341.952" y="1330.524" style="fill:#FFFFFF;" width="119.905" height="2"/>
			<rect x="366.714" y="1330.524" style="fill:#FFFFFF;" width="119.905" height="2"/>
			<rect x="1220.048" y="1330.524" style="fill:#FFFFFF;" width="119.904" height="2"/>
			<rect x="122.904" y="1330.524" style="fill:#FFFFFF;" width="119.905" height="2"/>
			<rect x="244.81" y="1330.524" style="fill:#FFFFFF;" width="119.904" height="2"/>
			<rect x="1463.857" y="1330.524" style="fill:#FFFFFF;" width="119.904" height="2"/>
			<rect x="610.523" y="1330.524" style="fill:#FFFFFF;" width="119.905" height="2"/>
			<rect x="854.333" y="1330.524" style="fill:#FFFFFF;" width="119.905" height="2"/>
			<rect x="732.429" y="1330.524" style="fill:#FFFFFF;" width="119.904" height="2"/>
			<rect x="1585.762" y="1330.524" style="fill:#FFFFFF;" width="119.905" height="2"/>
			<rect x="1951.477" y="1330.524" style="fill:#FFFFFF;" width="119.904" height="2"/>
			<rect x="2317.19" y="1330.524" style="fill:#FFFFFF;" width="119.905" height="2"/>
			<rect x="1707.667" y="1330.524" style="fill:#FFFFFF;" width="119.904" height="2"/>
			<rect x="1098.143" y="1330.524" style="fill:#FFFFFF;" width="119.905" height="2"/>
			<polygon style="fill:#FFFFFF;" points="120.904,1332.524 120.904,1330.524 1,1330.524 0,1330.524 0,1332.524 1,1332.524 			"/>
			<rect x="2195.286" y="1330.524" style="fill:#FFFFFF;" width="119.904" height="2"/>
			<polygon style="fill:#FFFFFF;" points="120.904,1210.619 120.904,1208.619 1,1208.619 0,1208.619 0,1210.619 1,1210.619 			"/>
			<rect x="1951.477" y="1208.619" style="fill:#FFFFFF;" width="119.904" height="2"/>
			<rect x="1220.048" y="1208.619" style="fill:#FFFFFF;" width="119.904" height="2"/>
			<rect x="488.619" y="1208.619" style="fill:#FFFFFF;" width="119.904" height="2"/>
			<rect x="122.904" y="1208.619" style="fill:#FFFFFF;" width="119.905" height="2"/>
			<rect x="2195.286" y="1208.619" style="fill:#FFFFFF;" width="119.904" height="2"/>
			<rect x="610.523" y="1208.619" style="fill:#FFFFFF;" width="119.905" height="2"/>
			<rect x="1585.762" y="1208.619" style="fill:#FFFFFF;" width="119.905" height="2"/>
			<rect x="244.81" y="1208.619" style="fill:#FFFFFF;" width="119.904" height="2"/>
			<rect x="2317.19" y="1208.619" style="fill:#FFFFFF;" width="119.905" height="2"/>
			<rect x="1463.857" y="1208.619" style="fill:#FFFFFF;" width="119.904" height="2"/>
			<polygon style="fill:#FFFFFF;" points="2439.096,1208.619 2439.096,1210.619 2559,1210.619 2560,1210.619 2560,1208.619 
				2559,1208.619 			"/>
			<rect x="976.238" y="1208.619" style="fill:#FFFFFF;" width="119.904" height="2"/>
			<rect x="1098.143" y="1208.619" style="fill:#FFFFFF;" width="119.905" height="2"/>
			<rect x="732.429" y="1208.619" style="fill:#FFFFFF;" width="119.904" height="2"/>
			<rect x="366.714" y="1208.619" style="fill:#FFFFFF;" width="119.905" height="2"/>
			<rect x="1341.952" y="1208.619" style="fill:#FFFFFF;" width="119.905" height="2"/>
			<rect x="854.333" y="1208.619" style="fill:#FFFFFF;" width="119.905" height="2"/>
			<rect x="1829.571" y="1208.619" style="fill:#FFFFFF;" width="119.905" height="2"/>
			<rect x="1707.667" y="1208.619" style="fill:#FFFFFF;" width="119.904" height="2"/>
			<rect x="2073.381" y="1208.619" style="fill:#FFFFFF;" width="119.905" height="2"/>
			<rect x="732.429" y="1086.714" style="fill:#FFFFFF;" width="119.904" height="2"/>
			<rect x="1585.762" y="1086.714" style="fill:#FFFFFF;" width="119.905" height="2"/>
			<rect x="610.523" y="1086.714" style="fill:#FFFFFF;" width="119.905" height="2"/>
			<rect x="1098.143" y="1086.714" style="fill:#FFFFFF;" width="119.905" height="2"/>
			<rect x="1463.857" y="1086.714" style="fill:#FFFFFF;" width="119.904" height="2"/>
			<rect x="976.238" y="1086.714" style="fill:#FFFFFF;" width="119.904" height="2"/>
			<rect x="244.81" y="1086.714" style="fill:#FFFFFF;" width="119.904" height="2"/>
			<rect x="854.333" y="1086.714" style="fill:#FFFFFF;" width="119.905" height="2"/>
			<rect x="2317.19" y="1086.714" style="fill:#FFFFFF;" width="119.905" height="2"/>
			<rect x="2195.286" y="1086.714" style="fill:#FFFFFF;" width="119.904" height="2"/>
			<rect x="122.904" y="1086.714" style="fill:#FFFFFF;" width="119.905" height="2"/>
			<rect x="1220.048" y="1086.714" style="fill:#FFFFFF;" width="119.904" height="2"/>
			<polygon style="fill:#FFFFFF;" points="2439.096,1086.714 2439.096,1088.714 2559,1088.714 2560,1088.714 2560,1086.714 
				2559,1086.714 			"/>
			<rect x="488.619" y="1086.714" style="fill:#FFFFFF;" width="119.904" height="2"/>
			<rect x="1707.667" y="1086.714" style="fill:#FFFFFF;" width="119.904" height="2"/>
			<rect x="2073.381" y="1086.714" style="fill:#FFFFFF;" width="119.905" height="2"/>
			<rect x="1951.477" y="1086.714" style="fill:#FFFFFF;" width="119.904" height="2"/>
			<polygon style="fill:#FFFFFF;" points="120.904,1088.714 120.904,1086.714 1,1086.714 0,1086.714 0,1088.714 1,1088.714 			"/>
			<rect x="1829.571" y="1086.714" style="fill:#FFFFFF;" width="119.905" height="2"/>
			<rect x="366.714" y="1086.714" style="fill:#FFFFFF;" width="119.905" height="2"/>
			<rect x="1341.952" y="1086.714" style="fill:#FFFFFF;" width="119.905" height="2"/>
			<rect x="2195.286" y="964.81" style="fill:#FFFFFF;" width="119.904" height="2"/>
			<rect x="1829.571" y="964.81" style="fill:#FFFFFF;" width="119.905" height="2"/>
			<rect x="244.81" y="964.81" style="fill:#FFFFFF;" width="119.904" height="2"/>
			<rect x="1341.952" y="964.81" style="fill:#FFFFFF;" width="119.905" height="2"/>
			<rect x="366.714" y="964.81" style="fill:#FFFFFF;" width="119.905" height="2"/>
			<rect x="1098.143" y="964.81" style="fill:#FFFFFF;" width="119.905" height="2"/>
			<rect x="1463.857" y="964.81" style="fill:#FFFFFF;" width="119.904" height="2"/>
			<rect x="1951.477" y="964.81" style="fill:#FFFFFF;" width="119.904" height="2"/>
			<polygon style="fill:#FFFFFF;" points="120.904,966.81 120.904,964.81 1,964.81 0,964.81 0,966.81 1,966.81 			"/>
			<rect x="976.238" y="964.81" style="fill:#FFFFFF;" width="119.904" height="2"/>
			<rect x="2073.381" y="964.81" style="fill:#FFFFFF;" width="119.905" height="2"/>
			<rect x="488.619" y="964.81" style="fill:#FFFFFF;" width="119.904" height="2"/>
			<rect x="854.333" y="964.81" style="fill:#FFFFFF;" width="119.905" height="2"/>
			<rect x="610.523" y="964.81" style="fill:#FFFFFF;" width="119.905" height="2"/>
			<polygon style="fill:#FFFFFF;" points="2439.096,964.81 2439.096,966.81 2559,966.81 2560,966.81 2560,964.81 2559,964.81 			"/>
			<rect x="1220.048" y="964.81" style="fill:#FFFFFF;" width="119.904" height="2"/>
			<rect x="122.904" y="964.81" style="fill:#FFFFFF;" width="119.905" height="2"/>
			<rect x="2317.19" y="964.81" style="fill:#FFFFFF;" width="119.905" height="2"/>
			<rect x="1707.667" y="964.81" style="fill:#FFFFFF;" width="119.904" height="2"/>
			<rect x="1585.762" y="964.81" style="fill:#FFFFFF;" width="119.905" height="2"/>
			<rect x="732.429" y="964.81" style="fill:#FFFFFF;" width="119.904" height="2"/>
			<rect x="1098.143" y="842.905" style="fill:#FFFFFF;" width="119.905" height="2"/>
			<rect x="244.81" y="842.905" style="fill:#FFFFFF;" width="119.904" height="2"/>
			<rect x="854.333" y="842.905" style="fill:#FFFFFF;" width="119.905" height="2"/>
			<rect x="1585.762" y="842.905" style="fill:#FFFFFF;" width="119.905" height="2"/>
			<rect x="1463.857" y="842.905" style="fill:#FFFFFF;" width="119.904" height="2"/>
			<rect x="976.238" y="842.905" style="fill:#FFFFFF;" width="119.904" height="2"/>
			<polygon style="fill:#FFFFFF;" points="120.904,844.905 120.904,842.905 1,842.905 0,842.905 0,844.905 1,844.905 			"/>
			<rect x="1951.477" y="842.905" style="fill:#FFFFFF;" width="119.904" height="2"/>
			<rect x="1829.571" y="842.905" style="fill:#FFFFFF;" width="119.905" height="2"/>
			<rect x="1707.667" y="842.905" style="fill:#FFFFFF;" width="119.904" height="2"/>
			<rect x="122.904" y="842.905" style="fill:#FFFFFF;" width="119.905" height="2"/>
			<rect x="732.429" y="842.905" style="fill:#FFFFFF;" width="119.904" height="2"/>
			<rect x="2195.286" y="842.905" style="fill:#FFFFFF;" width="119.904" height="2"/>
			<rect x="2073.381" y="842.905" style="fill:#FFFFFF;" width="119.905" height="2"/>
			<rect x="610.523" y="842.905" style="fill:#FFFFFF;" width="119.905" height="2"/>
			<rect x="2317.19" y="842.905" style="fill:#FFFFFF;" width="119.905" height="2"/>
			<rect x="488.619" y="842.905" style="fill:#FFFFFF;" width="119.904" height="2"/>
			<rect x="1220.048" y="842.905" style="fill:#FFFFFF;" width="119.904" height="2"/>
			<polygon style="fill:#FFFFFF;" points="2439.096,842.905 2439.096,844.905 2559,844.905 2560,844.905 2560,842.905 2559,842.905 
							"/>
			<rect x="366.714" y="842.905" style="fill:#FFFFFF;" width="119.905" height="2"/>
			<rect x="1341.952" y="842.905" style="fill:#FFFFFF;" width="119.905" height="2"/>
			<polygon style="fill:#FFFFFF;" points="2439.096,721 2439.096,723 2559,723 2560,723 2560,721 2559,721 			"/>
			<polygon style="fill:#FFFFFF;" points="120.904,723 120.904,721 1,721 0,721 0,723 1,723 			"/>
			<rect x="122.904" y="721" style="fill:#FFFFFF;" width="119.905" height="2"/>
			<rect x="732.429" y="721" style="fill:#FFFFFF;" width="119.904" height="2"/>
			<rect x="488.619" y="721" style="fill:#FFFFFF;" width="119.904" height="2"/>
			<rect x="854.333" y="721" style="fill:#FFFFFF;" width="119.905" height="2"/>
			<rect x="610.523" y="721" style="fill:#FFFFFF;" width="119.905" height="2"/>
			<rect x="366.714" y="721" style="fill:#FFFFFF;" width="119.905" height="2"/>
			<rect x="244.81" y="721" style="fill:#FFFFFF;" width="119.904" height="2"/>
			<rect x="976.238" y="721" style="fill:#FFFFFF;" width="119.904" height="2"/>
			<rect x="2073.381" y="721" style="fill:#FFFFFF;" width="119.905" height="2"/>
			<rect x="1220.048" y="721" style="fill:#FFFFFF;" width="119.904" height="2"/>
			<rect x="1098.143" y="721" style="fill:#FFFFFF;" width="119.905" height="2"/>
			<rect x="1463.857" y="721" style="fill:#FFFFFF;" width="119.904" height="2"/>
			<rect x="2195.286" y="721" style="fill:#FFFFFF;" width="119.904" height="2"/>
			<rect x="1951.477" y="721" style="fill:#FFFFFF;" width="119.904" height="2"/>
			<rect x="1829.571" y="721" style="fill:#FFFFFF;" width="119.905" height="2"/>
			<rect x="2317.19" y="721" style="fill:#FFFFFF;" width="119.905" height="2"/>
			<rect x="1585.762" y="721" style="fill:#FFFFFF;" width="119.905" height="2"/>
			<rect x="1707.667" y="721" style="fill:#FFFFFF;" width="119.904" height="2"/>
			<rect x="1341.952" y="721" style="fill:#FFFFFF;" width="119.905" height="2"/>
			<rect x="1098.143" y="599.095" style="fill:#FFFFFF;" width="119.905" height="2"/>
			<rect x="2195.286" y="599.095" style="fill:#FFFFFF;" width="119.904" height="2"/>
			<rect x="122.904" y="599.095" style="fill:#FFFFFF;" width="119.905" height="2"/>
			<rect x="854.333" y="599.095" style="fill:#FFFFFF;" width="119.905" height="2"/>
			<rect x="1707.667" y="599.095" style="fill:#FFFFFF;" width="119.904" height="2"/>
			<rect x="2073.381" y="599.095" style="fill:#FFFFFF;" width="119.905" height="2"/>
			<rect x="1951.477" y="599.095" style="fill:#FFFFFF;" width="119.904" height="2"/>
			<rect x="610.523" y="599.095" style="fill:#FFFFFF;" width="119.905" height="2"/>
			<rect x="1220.048" y="599.095" style="fill:#FFFFFF;" width="119.904" height="2"/>
			<rect x="2317.19" y="599.095" style="fill:#FFFFFF;" width="119.905" height="2"/>
			<rect x="1829.571" y="599.095" style="fill:#FFFFFF;" width="119.905" height="2"/>
			<polygon style="fill:#FFFFFF;" points="120.904,601.095 120.904,599.095 1,599.095 0,599.095 0,601.095 1,601.095 			"/>
			<rect x="976.238" y="599.095" style="fill:#FFFFFF;" width="119.904" height="2"/>
			<rect x="732.429" y="599.095" style="fill:#FFFFFF;" width="119.904" height="2"/>
			<polygon style="fill:#FFFFFF;" points="2439.096,599.095 2439.096,601.095 2559,601.095 2560,601.095 2560,599.095 2559,599.095 
							"/>
			<rect x="488.619" y="599.095" style="fill:#FFFFFF;" width="119.904" height="2"/>
			<rect x="1341.952" y="599.095" style="fill:#FFFFFF;" width="119.905" height="2"/>
			<rect x="1463.857" y="599.095" style="fill:#FFFFFF;" width="119.904" height="2"/>
			<rect x="366.714" y="599.095" style="fill:#FFFFFF;" width="119.905" height="2"/>
			<rect x="244.81" y="599.095" style="fill:#FFFFFF;" width="119.904" height="2"/>
			<rect x="1585.762" y="599.095" style="fill:#FFFFFF;" width="119.905" height="2"/>
			<rect x="854.333" y="477.19" style="fill:#FFFFFF;" width="119.905" height="2"/>
			<polygon style="fill:#FFFFFF;" points="2439.096,477.19 2439.096,479.19 2559,479.19 2560,479.19 2560,477.19 2559,477.19 			"/>
			<rect x="732.429" y="477.19" style="fill:#FFFFFF;" width="119.904" height="2"/>
			<rect x="2317.19" y="477.19" style="fill:#FFFFFF;" width="119.905" height="2"/>
			<rect x="122.904" y="477.19" style="fill:#FFFFFF;" width="119.905" height="2"/>
			<rect x="1707.667" y="477.19" style="fill:#FFFFFF;" width="119.904" height="2"/>
			<rect x="1341.952" y="477.19" style="fill:#FFFFFF;" width="119.905" height="2"/>
			<rect x="488.619" y="477.19" style="fill:#FFFFFF;" width="119.904" height="2"/>
			<rect x="1951.477" y="477.19" style="fill:#FFFFFF;" width="119.904" height="2"/>
			<rect x="1829.571" y="477.19" style="fill:#FFFFFF;" width="119.905" height="2"/>
			<rect x="1463.857" y="477.19" style="fill:#FFFFFF;" width="119.904" height="2"/>
			<rect x="976.238" y="477.19" style="fill:#FFFFFF;" width="119.904" height="2"/>
			<rect x="366.714" y="477.19" style="fill:#FFFFFF;" width="119.905" height="2"/>
			<rect x="244.81" y="477.19" style="fill:#FFFFFF;" width="119.904" height="2"/>
			<rect x="1585.762" y="477.19" style="fill:#FFFFFF;" width="119.905" height="2"/>
			<rect x="1220.048" y="477.19" style="fill:#FFFFFF;" width="119.904" height="2"/>
			<rect x="2195.286" y="477.19" style="fill:#FFFFFF;" width="119.904" height="2"/>
			<rect x="1098.143" y="477.19" style="fill:#FFFFFF;" width="119.905" height="2"/>
			<rect x="2073.381" y="477.19" style="fill:#FFFFFF;" width="119.905" height="2"/>
			<rect x="610.523" y="477.19" style="fill:#FFFFFF;" width="119.905" height="2"/>
			<polygon style="fill:#FFFFFF;" points="120.904,479.19 120.904,477.19 1,477.19 0,477.19 0,479.19 1,479.19 			"/>
			<rect x="1220.048" y="355.286" style="fill:#FFFFFF;" width="119.904" height="2"/>
			<rect x="1951.477" y="355.286" style="fill:#FFFFFF;" width="119.904" height="2"/>
			<polygon style="fill:#FFFFFF;" points="120.904,357.286 120.904,355.286 1,355.286 0,355.286 0,357.286 1,357.286 			"/>
			<rect x="2317.19" y="355.286" style="fill:#FFFFFF;" width="119.905" height="2"/>
			<rect x="2073.381" y="355.286" style="fill:#FFFFFF;" width="119.905" height="2"/>
			<rect x="610.523" y="355.286" style="fill:#FFFFFF;" width="119.905" height="2"/>
			<rect x="2195.286" y="355.286" style="fill:#FFFFFF;" width="119.904" height="2"/>
			<rect x="1098.143" y="355.286" style="fill:#FFFFFF;" width="119.905" height="2"/>
			<rect x="854.333" y="355.286" style="fill:#FFFFFF;" width="119.905" height="2"/>
			<rect x="732.429" y="355.286" style="fill:#FFFFFF;" width="119.904" height="2"/>
			<rect x="1463.857" y="355.286" style="fill:#FFFFFF;" width="119.904" height="2"/>
			<rect x="1585.762" y="355.286" style="fill:#FFFFFF;" width="119.905" height="2"/>
			<rect x="244.81" y="355.286" style="fill:#FFFFFF;" width="119.904" height="2"/>
			<rect x="488.619" y="355.286" style="fill:#FFFFFF;" width="119.904" height="2"/>
			<rect x="1341.952" y="355.286" style="fill:#FFFFFF;" width="119.905" height="2"/>
			<rect x="1707.667" y="355.286" style="fill:#FFFFFF;" width="119.904" height="2"/>
			<rect x="1829.571" y="355.286" style="fill:#FFFFFF;" width="119.905" height="2"/>
			<rect x="976.238" y="355.286" style="fill:#FFFFFF;" width="119.904" height="2"/>
			<rect x="122.904" y="355.286" style="fill:#FFFFFF;" width="119.905" height="2"/>
			<rect x="366.714" y="355.286" style="fill:#FFFFFF;" width="119.905" height="2"/>
			<polygon style="fill:#FFFFFF;" points="2439.096,355.286 2439.096,357.286 2559,357.286 2560,357.286 2560,355.286 2559,355.286 
							"/>
			<polygon style="fill:#FFFFFF;" points="2439.096,233.381 2439.096,235.381 2559,235.381 2560,235.381 2560,233.381 2559,233.381 
							"/>
			<rect x="732.429" y="233.381" style="fill:#FFFFFF;" width="119.904" height="2"/>
			<rect x="976.238" y="233.381" style="fill:#FFFFFF;" width="119.904" height="2"/>
			<rect x="1463.857" y="233.381" style="fill:#FFFFFF;" width="119.904" height="2"/>
			<rect x="610.523" y="233.381" style="fill:#FFFFFF;" width="119.905" height="2"/>
			<rect x="366.714" y="233.381" style="fill:#FFFFFF;" width="119.905" height="2"/>
			<rect x="488.619" y="233.381" style="fill:#FFFFFF;" width="119.904" height="2"/>
			<rect x="2317.19" y="233.381" style="fill:#FFFFFF;" width="119.905" height="2"/>
			<rect x="1707.667" y="233.381" style="fill:#FFFFFF;" width="119.904" height="2"/>
			<rect x="1585.762" y="233.381" style="fill:#FFFFFF;" width="119.905" height="2"/>
			<rect x="244.81" y="233.381" style="fill:#FFFFFF;" width="119.904" height="2"/>
			<polygon style="fill:#FFFFFF;" points="120.904,235.381 120.904,233.381 1,233.381 0,233.381 0,235.381 1,235.381 			"/>
			<rect x="1098.143" y="233.381" style="fill:#FFFFFF;" width="119.905" height="2"/>
			<rect x="2073.381" y="233.381" style="fill:#FFFFFF;" width="119.905" height="2"/>
			<rect x="2195.286" y="233.381" style="fill:#FFFFFF;" width="119.904" height="2"/>
			<rect x="1220.048" y="233.381" style="fill:#FFFFFF;" width="119.904" height="2"/>
			<rect x="1829.571" y="233.381" style="fill:#FFFFFF;" width="119.905" height="2"/>
			<rect x="122.904" y="233.381" style="fill:#FFFFFF;" width="119.905" height="2"/>
			<rect x="1951.477" y="233.381" style="fill:#FFFFFF;" width="119.904" height="2"/>
			<rect x="1341.952" y="233.381" style="fill:#FFFFFF;" width="119.905" height="2"/>
			<rect x="854.333" y="233.381" style="fill:#FFFFFF;" width="119.905" height="2"/>
			<polygon style="fill:#FFFFFF;" points="2439.096,111.476 2439.096,113.476 2559,113.476 2560,113.476 2560,111.476 2559,111.476 
							"/>
			<rect x="1829.571" y="111.476" style="fill:#FFFFFF;" width="119.905" height="2"/>
			<rect x="1098.143" y="111.476" style="fill:#FFFFFF;" width="119.905" height="2"/>
			<rect x="122.904" y="111.476" style="fill:#FFFFFF;" width="119.905" height="2"/>
			<rect x="1463.857" y="111.476" style="fill:#FFFFFF;" width="119.904" height="2"/>
			<rect x="610.523" y="111.476" style="fill:#FFFFFF;" width="119.905" height="2"/>
			<rect x="976.238" y="111.476" style="fill:#FFFFFF;" width="119.904" height="2"/>
			<rect x="2195.286" y="111.476" style="fill:#FFFFFF;" width="119.904" height="2"/>
			<rect x="366.714" y="111.476" style="fill:#FFFFFF;" width="119.905" height="2"/>
			<rect x="2317.19" y="111.476" style="fill:#FFFFFF;" width="119.905" height="2"/>
			<rect x="1951.477" y="111.476" style="fill:#FFFFFF;" width="119.904" height="2"/>
			<rect x="2073.381" y="111.476" style="fill:#FFFFFF;" width="119.905" height="2"/>
			<rect x="1707.667" y="111.476" style="fill:#FFFFFF;" width="119.904" height="2"/>
			<rect x="244.81" y="111.476" style="fill:#FFFFFF;" width="119.904" height="2"/>
			<rect x="1220.048" y="111.476" style="fill:#FFFFFF;" width="119.904" height="2"/>
			<rect x="732.429" y="111.476" style="fill:#FFFFFF;" width="119.904" height="2"/>
			<polygon style="fill:#FFFFFF;" points="120.904,113.476 120.904,111.476 1,111.476 0,111.476 0,113.476 1,113.476 			"/>
			<rect x="1585.762" y="111.476" style="fill:#FFFFFF;" width="119.905" height="2"/>
			<rect x="854.333" y="111.476" style="fill:#FFFFFF;" width="119.905" height="2"/>
			<rect x="1341.952" y="111.476" style="fill:#FFFFFF;" width="119.905" height="2"/>
			<rect x="488.619" y="111.476" style="fill:#FFFFFF;" width="119.904" height="2"/>
			<polygon style="fill:#FFFFFF;" points="2439.096,1330.524 2439.096,1210.619 2439.096,1208.619 2439.096,1088.714 
				2439.096,1086.714 2439.096,966.81 2439.096,964.81 2439.096,844.905 2439.096,842.905 2439.096,723 2439.096,721 
				2439.096,601.095 2439.096,599.095 2439.096,479.19 2439.096,477.19 2439.096,357.286 2439.096,355.286 2439.096,235.381 
				2439.096,233.381 2439.096,113.476 2439.096,111.476 2439.096,0 2437.096,0 2437.096,111.476 2437.096,113.476 2437.096,233.381 
				2437.096,235.381 2437.096,355.286 2437.096,357.286 2437.096,477.19 2437.096,479.19 2437.096,599.095 2437.096,601.095 
				2437.096,721 2437.096,723 2437.096,842.905 2437.096,844.905 2437.096,964.81 2437.096,966.81 2437.096,1086.714 
				2437.096,1088.714 2437.096,1208.619 2437.096,1210.619 2437.096,1330.524 2437.096,1332.524 2437.096,1440 2439.096,1440 
				2439.096,1332.524 			"/>
			<polygon style="fill:#FFFFFF;" points="2317.19,1330.524 2317.19,1210.619 2317.19,1208.619 2317.19,1088.714 2317.19,1086.714 
				2317.19,966.81 2317.19,964.81 2317.19,844.905 2317.19,842.905 2317.19,723 2317.19,721 2317.19,601.095 2317.19,599.095 
				2317.19,479.19 2317.19,477.19 2317.19,357.286 2317.19,355.286 2317.19,235.381 2317.19,233.381 2317.19,113.476 
				2317.19,111.476 2317.19,0 2315.19,0 2315.19,111.476 2315.19,113.476 2315.19,233.381 2315.19,235.381 2315.19,355.286 
				2315.19,357.286 2315.19,477.19 2315.19,479.19 2315.19,599.095 2315.19,601.095 2315.19,721 2315.19,723 2315.19,842.905 
				2315.19,844.905 2315.19,964.81 2315.19,966.81 2315.19,1086.714 2315.19,1088.714 2315.19,1208.619 2315.19,1210.619 
				2315.19,1330.524 2315.19,1332.524 2315.19,1440 2317.19,1440 2317.19,1332.524 			"/>
			<polygon style="fill:#FFFFFF;" points="2195.286,1330.524 2195.286,1210.619 2195.286,1208.619 2195.286,1088.714 
				2195.286,1086.714 2195.286,966.81 2195.286,964.81 2195.286,844.905 2195.286,842.905 2195.286,723 2195.286,721 
				2195.286,601.095 2195.286,599.095 2195.286,479.19 2195.286,477.19 2195.286,357.286 2195.286,355.286 2195.286,235.381 
				2195.286,233.381 2195.286,113.476 2195.286,111.476 2195.286,0 2193.286,0 2193.286,111.476 2193.286,113.476 2193.286,233.381 
				2193.286,235.381 2193.286,355.286 2193.286,357.286 2193.286,477.19 2193.286,479.19 2193.286,599.095 2193.286,601.095 
				2193.286,721 2193.286,723 2193.286,842.905 2193.286,844.905 2193.286,964.81 2193.286,966.81 2193.286,1086.714 
				2193.286,1088.714 2193.286,1208.619 2193.286,1210.619 2193.286,1330.524 2193.286,1332.524 2193.286,1440 2195.286,1440 
				2195.286,1332.524 			"/>
			<polygon style="fill:#FFFFFF;" points="2073.381,1330.524 2073.381,1210.619 2073.381,1208.619 2073.381,1088.714 
				2073.381,1086.714 2073.381,966.81 2073.381,964.81 2073.381,844.905 2073.381,842.905 2073.381,723 2073.381,721 
				2073.381,601.095 2073.381,599.095 2073.381,479.19 2073.381,477.19 2073.381,357.286 2073.381,355.286 2073.381,235.381 
				2073.381,233.381 2073.381,113.476 2073.381,111.476 2073.381,0 2071.381,0 2071.381,111.476 2071.381,113.476 2071.381,233.381 
				2071.381,235.381 2071.381,355.286 2071.381,357.286 2071.381,477.19 2071.381,479.19 2071.381,599.095 2071.381,601.095 
				2071.381,721 2071.381,723 2071.381,842.905 2071.381,844.905 2071.381,964.81 2071.381,966.81 2071.381,1086.714 
				2071.381,1088.714 2071.381,1208.619 2071.381,1210.619 2071.381,1330.524 2071.381,1332.524 2071.381,1440 2073.381,1440 
				2073.381,1332.524 			"/>
			<polygon style="fill:#FFFFFF;" points="1951.477,1330.524 1951.477,1210.619 1951.477,1208.619 1951.477,1088.714 
				1951.477,1086.714 1951.477,966.81 1951.477,964.81 1951.477,844.905 1951.477,842.905 1951.477,723 1951.477,721 
				1951.477,601.095 1951.477,599.095 1951.477,479.19 1951.477,477.19 1951.477,357.286 1951.477,355.286 1951.477,235.381 
				1951.477,233.381 1951.477,113.476 1951.477,111.476 1951.477,0 1949.477,0 1949.477,111.476 1949.477,113.476 1949.477,233.381 
				1949.477,235.381 1949.477,355.286 1949.477,357.286 1949.477,477.19 1949.477,479.19 1949.477,599.095 1949.477,601.095 
				1949.477,721 1949.477,723 1949.477,842.905 1949.477,844.905 1949.477,964.81 1949.477,966.81 1949.477,1086.714 
				1949.477,1088.714 1949.477,1208.619 1949.477,1210.619 1949.477,1330.524 1949.477,1332.524 1949.477,1440 1951.477,1440 
				1951.477,1332.524 			"/>
			<polygon style="fill:#FFFFFF;" points="1829.571,1330.524 1829.571,1210.619 1829.571,1208.619 1829.571,1088.714 
				1829.571,1086.714 1829.571,966.81 1829.571,964.81 1829.571,844.905 1829.571,842.905 1829.571,723 1829.571,721 
				1829.571,601.095 1829.571,599.095 1829.571,479.19 1829.571,477.19 1829.571,357.286 1829.571,355.286 1829.571,235.381 
				1829.571,233.381 1829.571,113.476 1829.571,111.476 1829.571,0 1827.571,0 1827.571,111.476 1827.571,113.476 1827.571,233.381 
				1827.571,235.381 1827.571,355.286 1827.571,357.286 1827.571,477.19 1827.571,479.19 1827.571,599.095 1827.571,601.095 
				1827.571,721 1827.571,723 1827.571,842.905 1827.571,844.905 1827.571,964.81 1827.571,966.81 1827.571,1086.714 
				1827.571,1088.714 1827.571,1208.619 1827.571,1210.619 1827.571,1330.524 1827.571,1332.524 1827.571,1440 1829.571,1440 
				1829.571,1332.524 			"/>
			<polygon style="fill:#FFFFFF;" points="1707.667,1330.524 1707.667,1210.619 1707.667,1208.619 1707.667,1088.714 
				1707.667,1086.714 1707.667,966.81 1707.667,964.81 1707.667,844.905 1707.667,842.905 1707.667,723 1707.667,721 
				1707.667,601.095 1707.667,599.095 1707.667,479.19 1707.667,477.19 1707.667,357.286 1707.667,355.286 1707.667,235.381 
				1707.667,233.381 1707.667,113.476 1707.667,111.476 1707.667,0 1705.667,0 1705.667,111.476 1705.667,113.476 1705.667,233.381 
				1705.667,235.381 1705.667,355.286 1705.667,357.286 1705.667,477.19 1705.667,479.19 1705.667,599.095 1705.667,601.095 
				1705.667,721 1705.667,723 1705.667,842.905 1705.667,844.905 1705.667,964.81 1705.667,966.81 1705.667,1086.714 
				1705.667,1088.714 1705.667,1208.619 1705.667,1210.619 1705.667,1330.524 1705.667,1332.524 1705.667,1440 1707.667,1440 
				1707.667,1332.524 			"/>
			<polygon style="fill:#FFFFFF;" points="1585.762,1330.524 1585.762,1210.619 1585.762,1208.619 1585.762,1088.714 
				1585.762,1086.714 1585.762,966.81 1585.762,964.81 1585.762,844.905 1585.762,842.905 1585.762,723 1585.762,721 
				1585.762,601.095 1585.762,599.095 1585.762,479.19 1585.762,477.19 1585.762,357.286 1585.762,355.286 1585.762,235.381 
				1585.762,233.381 1585.762,113.476 1585.762,111.476 1585.762,0 1583.762,0 1583.762,111.476 1583.762,113.476 1583.762,233.381 
				1583.762,235.381 1583.762,355.286 1583.762,357.286 1583.762,477.19 1583.762,479.19 1583.762,599.095 1583.762,601.095 
				1583.762,721 1583.762,723 1583.762,842.905 1583.762,844.905 1583.762,964.81 1583.762,966.81 1583.762,1086.714 
				1583.762,1088.714 1583.762,1208.619 1583.762,1210.619 1583.762,1330.524 1583.762,1332.524 1583.762,1440 1585.762,1440 
				1585.762,1332.524 			"/>
			<polygon style="fill:#FFFFFF;" points="1463.857,1330.524 1463.857,1210.619 1463.857,1208.619 1463.857,1088.714 
				1463.857,1086.714 1463.857,966.81 1463.857,964.81 1463.857,844.905 1463.857,842.905 1463.857,723 1463.857,721 
				1463.857,601.095 1463.857,599.095 1463.857,479.19 1463.857,477.19 1463.857,357.286 1463.857,355.286 1463.857,235.381 
				1463.857,233.381 1463.857,113.476 1463.857,111.476 1463.857,0 1461.857,0 1461.857,111.476 1461.857,113.476 1461.857,233.381 
				1461.857,235.381 1461.857,355.286 1461.857,357.286 1461.857,477.19 1461.857,479.19 1461.857,599.095 1461.857,601.095 
				1461.857,721 1461.857,723 1461.857,842.905 1461.857,844.905 1461.857,964.81 1461.857,966.81 1461.857,1086.714 
				1461.857,1088.714 1461.857,1208.619 1461.857,1210.619 1461.857,1330.524 1461.857,1332.524 1461.857,1440 1463.857,1440 
				1463.857,1332.524 			"/>
			<polygon style="fill:#FFFFFF;" points="1341.952,1330.524 1341.952,1210.619 1341.952,1208.619 1341.952,1088.714 
				1341.952,1086.714 1341.952,966.81 1341.952,964.81 1341.952,844.905 1341.952,842.905 1341.952,723 1341.952,721 
				1341.952,601.095 1341.952,599.095 1341.952,479.19 1341.952,477.19 1341.952,357.286 1341.952,355.286 1341.952,235.381 
				1341.952,233.381 1341.952,113.476 1341.952,111.476 1341.952,0 1339.952,0 1339.952,111.476 1339.952,113.476 1339.952,233.381 
				1339.952,235.381 1339.952,355.286 1339.952,357.286 1339.952,477.19 1339.952,479.19 1339.952,599.095 1339.952,601.095 
				1339.952,721 1339.952,723 1339.952,842.905 1339.952,844.905 1339.952,964.81 1339.952,966.81 1339.952,1086.714 
				1339.952,1088.714 1339.952,1208.619 1339.952,1210.619 1339.952,1330.524 1339.952,1332.524 1339.952,1440 1341.952,1440 
				1341.952,1332.524 			"/>
			<polygon style="fill:#FFFFFF;" points="1220.048,1330.524 1220.048,1210.619 1220.048,1208.619 1220.048,1088.714 
				1220.048,1086.714 1220.048,966.81 1220.048,964.81 1220.048,844.905 1220.048,842.905 1220.048,723 1220.048,721 
				1220.048,601.095 1220.048,599.095 1220.048,479.19 1220.048,477.19 1220.048,357.286 1220.048,355.286 1220.048,235.381 
				1220.048,233.381 1220.048,113.476 1220.048,111.476 1220.048,0 1218.048,0 1218.048,111.476 1218.048,113.476 1218.048,233.381 
				1218.048,235.381 1218.048,355.286 1218.048,357.286 1218.048,477.19 1218.048,479.19 1218.048,599.095 1218.048,601.095 
				1218.048,721 1218.048,723 1218.048,842.905 1218.048,844.905 1218.048,964.81 1218.048,966.81 1218.048,1086.714 
				1218.048,1088.714 1218.048,1208.619 1218.048,1210.619 1218.048,1330.524 1218.048,1332.524 1218.048,1440 1220.048,1440 
				1220.048,1332.524 			"/>
			<polygon style="fill:#FFFFFF;" points="1098.143,1330.524 1098.143,1210.619 1098.143,1208.619 1098.143,1088.714 
				1098.143,1086.714 1098.143,966.81 1098.143,964.81 1098.143,844.905 1098.143,842.905 1098.143,723 1098.143,721 
				1098.143,601.095 1098.143,599.095 1098.143,479.19 1098.143,477.19 1098.143,357.286 1098.143,355.286 1098.143,235.381 
				1098.143,233.381 1098.143,113.476 1098.143,111.476 1098.143,0 1096.143,0 1096.143,111.476 1096.143,113.476 1096.143,233.381 
				1096.143,235.381 1096.143,355.286 1096.143,357.286 1096.143,477.19 1096.143,479.19 1096.143,599.095 1096.143,601.095 
				1096.143,721 1096.143,723 1096.143,842.905 1096.143,844.905 1096.143,964.81 1096.143,966.81 1096.143,1086.714 
				1096.143,1088.714 1096.143,1208.619 1096.143,1210.619 1096.143,1330.524 1096.143,1332.524 1096.143,1440 1098.143,1440 
				1098.143,1332.524 			"/>
			<polygon style="fill:#FFFFFF;" points="976.238,1330.524 976.238,1210.619 976.238,1208.619 976.238,1088.714 976.238,1086.714 
				976.238,966.81 976.238,964.81 976.238,844.905 976.238,842.905 976.238,723 976.238,721 976.238,601.095 976.238,599.095 
				976.238,479.19 976.238,477.19 976.238,357.286 976.238,355.286 976.238,235.381 976.238,233.381 976.238,113.476 
				976.238,111.476 976.238,0 974.238,0 974.238,111.476 974.238,113.476 974.238,233.381 974.238,235.381 974.238,355.286 
				974.238,357.286 974.238,477.19 974.238,479.19 974.238,599.095 974.238,601.095 974.238,721 974.238,723 974.238,842.905 
				974.238,844.905 974.238,964.81 974.238,966.81 974.238,1086.714 974.238,1088.714 974.238,1208.619 974.238,1210.619 
				974.238,1330.524 974.238,1332.524 974.238,1440 976.238,1440 976.238,1332.524 			"/>
			<polygon style="fill:#FFFFFF;" points="854.333,1330.524 854.333,1210.619 854.333,1208.619 854.333,1088.714 854.333,1086.714 
				854.333,966.81 854.333,964.81 854.333,844.905 854.333,842.905 854.333,723 854.333,721 854.333,601.095 854.333,599.095 
				854.333,479.19 854.333,477.19 854.333,357.286 854.333,355.286 854.333,235.381 854.333,233.381 854.333,113.476 
				854.333,111.476 854.333,0 852.333,0 852.333,111.476 852.333,113.476 852.333,233.381 852.333,235.381 852.333,355.286 
				852.333,357.286 852.333,477.19 852.333,479.19 852.333,599.095 852.333,601.095 852.333,721 852.333,723 852.333,842.905 
				852.333,844.905 852.333,964.81 852.333,966.81 852.333,1086.714 852.333,1088.714 852.333,1208.619 852.333,1210.619 
				852.333,1330.524 852.333,1332.524 852.333,1440 854.333,1440 854.333,1332.524 			"/>
			<polygon style="fill:#FFFFFF;" points="732.429,1330.524 732.429,1210.619 732.429,1208.619 732.429,1088.714 732.429,1086.714 
				732.429,966.81 732.429,964.81 732.429,844.905 732.429,842.905 732.429,723 732.429,721 732.429,601.095 732.429,599.095 
				732.429,479.19 732.429,477.19 732.429,357.286 732.429,355.286 732.429,235.381 732.429,233.381 732.429,113.476 
				732.429,111.476 732.429,0 730.429,0 730.429,111.476 730.429,113.476 730.429,233.381 730.429,235.381 730.429,355.286 
				730.429,357.286 730.429,477.19 730.429,479.19 730.429,599.095 730.429,601.095 730.429,721 730.429,723 730.429,842.905 
				730.429,844.905 730.429,964.81 730.429,966.81 730.429,1086.714 730.429,1088.714 730.429,1208.619 730.429,1210.619 
				730.429,1330.524 730.429,1332.524 730.429,1440 732.429,1440 732.429,1332.524 			"/>
			<polygon style="fill:#FFFFFF;" points="610.523,1330.524 610.523,1210.619 610.523,1208.619 610.523,1088.714 610.523,1086.714 
				610.523,966.81 610.523,964.81 610.523,844.905 610.523,842.905 610.523,723 610.523,721 610.523,601.095 610.523,599.095 
				610.523,479.19 610.523,477.19 610.523,357.286 610.523,355.286 610.523,235.381 610.523,233.381 610.523,113.476 
				610.523,111.476 610.523,0 608.523,0 608.523,111.476 608.523,113.476 608.523,233.381 608.523,235.381 608.523,355.286 
				608.523,357.286 608.523,477.19 608.523,479.19 608.523,599.095 608.523,601.095 608.523,721 608.523,723 608.523,842.905 
				608.523,844.905 608.523,964.81 608.523,966.81 608.523,1086.714 608.523,1088.714 608.523,1208.619 608.523,1210.619 
				608.523,1330.524 608.523,1332.524 608.523,1440 610.523,1440 610.523,1332.524 			"/>
			<polygon style="fill:#FFFFFF;" points="488.619,1330.524 488.619,1210.619 488.619,1208.619 488.619,1088.714 488.619,1086.714 
				488.619,966.81 488.619,964.81 488.619,844.905 488.619,842.905 488.619,723 488.619,721 488.619,601.095 488.619,599.095 
				488.619,479.19 488.619,477.19 488.619,357.286 488.619,355.286 488.619,235.381 488.619,233.381 488.619,113.476 
				488.619,111.476 488.619,0 486.619,0 486.619,111.476 486.619,113.476 486.619,233.381 486.619,235.381 486.619,355.286 
				486.619,357.286 486.619,477.19 486.619,479.19 486.619,599.095 486.619,601.095 486.619,721 486.619,723 486.619,842.905 
				486.619,844.905 486.619,964.81 486.619,966.81 486.619,1086.714 486.619,1088.714 486.619,1208.619 486.619,1210.619 
				486.619,1330.524 486.619,1332.524 486.619,1440 488.619,1440 488.619,1332.524 			"/>
			<polygon style="fill:#FFFFFF;" points="366.714,1330.524 366.714,1210.619 366.714,1208.619 366.714,1088.714 366.714,1086.714 
				366.714,966.81 366.714,964.81 366.714,844.905 366.714,842.905 366.714,723 366.714,721 366.714,601.095 366.714,599.095 
				366.714,479.19 366.714,477.19 366.714,357.286 366.714,355.286 366.714,235.381 366.714,233.381 366.714,113.476 
				366.714,111.476 366.714,0 364.714,0 364.714,111.476 364.714,113.476 364.714,233.381 364.714,235.381 364.714,355.286 
				364.714,357.286 364.714,477.19 364.714,479.19 364.714,599.095 364.714,601.095 364.714,721 364.714,723 364.714,842.905 
				364.714,844.905 364.714,964.81 364.714,966.81 364.714,1086.714 364.714,1088.714 364.714,1208.619 364.714,1210.619 
				364.714,1330.524 364.714,1332.524 364.714,1440 366.714,1440 366.714,1332.524 			"/>
			<polygon style="fill:#FFFFFF;" points="244.81,1330.524 244.81,1210.619 244.81,1208.619 244.81,1088.714 244.81,1086.714 
				244.81,966.81 244.81,964.81 244.81,844.905 244.81,842.905 244.81,723 244.81,721 244.81,601.095 244.81,599.095 244.81,479.19 
				244.81,477.19 244.81,357.286 244.81,355.286 244.81,235.381 244.81,233.381 244.81,113.476 244.81,111.476 244.81,0 242.81,0 
				242.81,111.476 242.81,113.476 242.81,233.381 242.81,235.381 242.81,355.286 242.81,357.286 242.81,477.19 242.81,479.19 
				242.81,599.095 242.81,601.095 242.81,721 242.81,723 242.81,842.905 242.81,844.905 242.81,964.81 242.81,966.81 
				242.81,1086.714 242.81,1088.714 242.81,1208.619 242.81,1210.619 242.81,1330.524 242.81,1332.524 242.81,1440 244.81,1440 
				244.81,1332.524 			"/>
			<polygon style="fill:#FFFFFF;" points="122.904,1330.524 122.904,1210.619 122.904,1208.619 122.904,1088.714 122.904,1086.714 
				122.904,966.81 122.904,964.81 122.904,844.905 122.904,842.905 122.904,723 122.904,721 122.904,601.095 122.904,599.095 
				122.904,479.19 122.904,477.19 122.904,357.286 122.904,355.286 122.904,235.381 122.904,233.381 122.904,113.476 
				122.904,111.476 122.904,0 120.904,0 120.904,111.476 120.904,113.476 120.904,233.381 120.904,235.381 120.904,355.286 
				120.904,357.286 120.904,477.19 120.904,479.19 120.904,599.095 120.904,601.095 120.904,721 120.904,723 120.904,842.905 
				120.904,844.905 120.904,964.81 120.904,966.81 120.904,1086.714 120.904,1088.714 120.904,1208.619 120.904,1210.619 
				120.904,1330.524 120.904,1332.524 120.904,1440 122.904,1440 122.904,1332.524 			"/>
		</g>
		
			<radialGradient id="SVGID_00000119801161708436651680000000192022892186021293_" cx="1280" cy="720" r="388.3496" gradientUnits="userSpaceOnUse">
			<stop  offset="0" style="stop-color:#FABA58"/>
			<stop  offset="1" style="stop-color:#FDB3FE"/>
		</radialGradient>
		
			<path style="clip-path:url(#SVGID_00000039106406609991738710000011446183091862420131_);fill:url(#SVGID_00000119801161708436651680000000192022892186021293_);" d="
			M1584.329,925.133H975.671c-113.292,0-205.133-91.841-205.133-205.133v0c0-113.292,91.841-205.133,205.133-205.133h608.658
			c113.292,0,205.133,91.841,205.133,205.133v0C1789.462,833.292,1697.621,925.133,1584.329,925.133z"/>
		<g style="clip-path:url(#SVGID_00000039106406609991738710000011446183091862420131_);">
			<path d="M1540.637,661.133c0,0,42.399-39.524,48.871-24.544C1595.979,651.569,1540.637,661.133,1540.637,661.133z"/>
			<path d="M1541.543,669.658c0,0,57.964-0.122,52.516,15.259C1588.61,700.299,1541.543,669.658,1541.543,669.658z"/>
			<path d="M1532.577,654.243c0,0,1.708-57.939,16.91-52.008C1564.689,608.167,1532.577,654.243,1532.577,654.243z"/>
		</g>
		<g style="clip-path:url(#SVGID_00000039106406609991738710000011446183091862420131_);">
			<path d="M1025.308,650.65c0,0-57.928-2.034-51.912-17.202C979.413,618.28,1025.308,650.65,1025.308,650.65z"/>
			<path d="M1030.696,643.982c0,0-41.073-40.9-26.344-47.924C1019.08,589.034,1030.696,643.982,1030.696,643.982z"/>
			<path d="M1026.136,661.222c0,0-42.177,39.761-48.732,24.818C970.848,671.096,1026.136,661.222,1026.136,661.222z"/>
		</g>
		
			<line style="clip-path:url(#SVGID_00000039106406609991738710000011446183091862420131_);fill:none;stroke:#FFFFFF;stroke-width:5;stroke-miterlimit:10;" x1="121.905" y1="487.619" x2="121.905" y2="975.238"/>
		
			<line style="clip-path:url(#SVGID_00000039106406609991738710000011446183091862420131_);fill:none;stroke:#FFFFFF;stroke-width:5;stroke-miterlimit:10;" x1="2438.095" y1="975.238" x2="2438.095" y2="487.619"/>
		<g style="clip-path:url(#SVGID_00000039106406609991738710000011446183091862420131_);">
			<text transform="matrix(1 0 0 1 1044.7261 702.076)"><tspan x="0" y="0" style="font-family:'Federo-Regular'; font-size:151px;">ADELE</tspan><tspan x="-108.458" y="135.792" style="font-family:'Federo-Regular'; font-size:151px;">CONNOR</tspan></text>
		</g>
		<g style="clip-path:url(#SVGID_00000039106406609991738710000011446183091862420131_);">
			<text transform="matrix(0 1 -1 0 2362.6016 540.2444)" style="fill:#FFFFFF; font-family:'Federo-Regular'; font-size:43px;">PERSONAL TRAINER</text>
		</g>
		<g style="clip-path:url(#SVGID_00000039106406609991738710000011446183091862420131_);">
			<text transform="matrix(0 -1 1 0 197.3982 922.6128)" style="fill:#FFFFFF; font-family:'Federo-Regular'; font-size:43px;">PERSONAL TRAINER</text>
		</g>
	</g>
</g>
</svg>
